# xmcd
#
# Track frame offsets: 
#        183
#        10838
#        28368
#        43840
#        60008
#        72883
#        92338
#        110010
#        123885
#        145540
#
# Disc length: 2206 seconds
#
# Revision: 2
# Processed by: cddbd v1.4PL0 Copyright (c) Steve Scherf et al.
# Submitted via: ExactAudioCopy v0.90b4
#
DISCID=7a089c0a
DTITLE=Garth Brooks - Ropin' The Wind
DYEAR=1991
DGENRE=Country
TTITLE0=Against The Grain
TTITLE1=Rodeo
TTITLE2=What She's Doing Now
TTITLE3=Burning Bridges
TTITLE4=Papa Loved Mama
TTITLE5=Shameless
TTITLE6=Cold Shoulder
TTITLE7=We Bury The Hatchet
TTITLE8=In Lonesome Dove
TTITLE9=The River
EXTD=
EXTT0=
EXTT1=
EXTT2=
EXTT3=
EXTT4=
EXTT5=
EXTT6=
EXTT7=
EXTT8=
EXTT9=
PLAYORDER=
